<svg width="24" height="24" viewBox="0 0 24 24" fill="none" xmlns="http://www.w3.org/2000/svg">
<g id="comment-icon">
<path id="Combined Shape" d="M20 16.5V17C20.2761 17 20.5 16.7761 20.5 16.5H20ZM20 4.94444H20.5C20.5 4.6683 20.2761 4.44444 20 4.44444V4.94444ZM12.8889 16.5V16C12.7902 16 12.6937 16.0292 12.6115 16.084L12.8889 16.5ZM7.55556 20.0556H7.05556C7.05556 20.24 7.15705 20.4094 7.31963 20.4964C7.48221 20.5834 7.67948 20.5739 7.83291 20.4716L7.55556 20.0556ZM7.55556 16.5H8.05556C8.05556 16.2239 7.8317 16 7.55556 16V16.5ZM4 16.5H3.5C3.5 16.7761 3.72386 17 4 17V16.5ZM4 4.94444V4.44444C3.72386 4.44444 3.5 4.6683 3.5 4.94444H4ZM20.5 16.5V4.94444H19.5V16.5H20.5ZM12.8889 17H20V16H12.8889V17ZM7.83291 20.4716L13.1662 16.916L12.6115 16.084L7.27821 19.6395L7.83291 20.4716ZM7.05556 16.5V20.0556H8.05556V16.5H7.05556ZM4 17H7.55556V16H4V17ZM3.5 4.94444V16.5H4.5V4.94444H3.5ZM20 4.44444H4V5.44444H20V4.44444Z" fill="#FF7350"/>
</g>
</svg>
