<svg width="32" height="24" viewBox="0 0 32 24" fill="none" xmlns="http://www.w3.org/2000/svg">
<path d="M9.38255 11.9534C12.0499 12.6681 14.7916 11.0852 15.5063 8.41782C16.0055 6.55453 15.3143 3.19001 15.3143 3.19001L8.62715 1.39818C8.62715 1.39818 6.56173 3.1623 5.84702 5.82963C5.13231 8.49696 6.71522 11.2386 9.38255 11.9534ZM9.38255 11.9534L7.82964 17.7489M7.82964 17.7489L3.96593 16.7136M7.82964 17.7489L11.6933 18.7842" stroke="white" stroke-width="2"/>
<path d="M22.4178 14.9534C25.0852 14.2386 26.6681 11.497 25.9534 8.82963C25.4541 6.96635 23.1732 4.39819 23.1732 4.39819L16.486 6.19001C16.486 6.19001 15.5794 8.75049 16.2941 11.4178C17.0088 14.0852 19.7505 15.6681 22.4178 14.9534ZM22.4178 14.9534L23.9707 20.7489M23.9707 20.7489L20.107 21.7842M23.9707 20.7489L27.8344 19.7136" stroke="white" stroke-width="2"/>
<path d="M16.4989 9.97907C19.5257 11.5245 24.1287 11.5629 26.1036 9.98502C26.1126 11.8653 25.7525 14.0581 22.3719 15.0604C18.9913 16.0627 16.9268 11.7606 16.4989 9.97907Z" fill="white"/>
<path d="M15.0122 7.77584C12.1517 9.05279 7.70263 8.81116 5.72547 7.20149C5.79733 8.97701 6.23946 11.0699 9.55116 12.2208C12.8629 13.3716 14.6748 9.4328 15.0122 7.77584Z" fill="white" stroke="white"/>
</svg>
