<svg width="16" height="16" viewBox="0 0 16 16" fill="none" xmlns="http://www.w3.org/2000/svg">
<g id="places">
<g id="Stroke 1">
<path fill-rule="evenodd" clip-rule="evenodd" d="M0.666668 12C0.666668 10.5 2.66667 10.5 3.66667 9.5C4.16667 9 2.66667 9 2.66667 6.5C2.66667 4.8335 3.33317 4 4.66667 4C6.00017 4 6.66667 4.8335 6.66667 6.5C6.66667 9 5.16667 9 5.66667 9.5C6.66667 10.5 8.66667 10.5 8.66667 12" fill="#FF7350"/>
<path d="M0.666668 12C0.666668 10.5 2.66667 10.5 3.66667 9.5C4.16667 9 2.66667 9 2.66667 6.5C2.66667 4.8335 3.33317 4 4.66667 4C6.00017 4 6.66667 4.8335 6.66667 6.5C6.66667 9 5.16667 9 5.66667 9.5C6.66667 10.5 8.66667 10.5 8.66667 12M0.666668 12V13H8.66667V12M0.666668 12H8.66667" stroke="#FF7350"/>
</g>
<g id="Stroke 2">
<path fill-rule="evenodd" clip-rule="evenodd" d="M7 12C7 10.5 9 10.5 10 9.5C10.5 9 9 9 9 6.5C9 4.8335 9.6665 4 11 4C12.3335 4 13 4.8335 13 6.5C13 9 11.5 9 12 9.5C13 10.5 15 10.5 15 12" fill="#FF7350"/>
<path d="M7 12C7 10.5 9 10.5 10 9.5C10.5 9 9 9 9 6.5C9 4.8335 9.6665 4 11 4C12.3335 4 13 4.8335 13 6.5C13 9 11.5 9 12 9.5C13 10.5 15 10.5 15 12M7 12V13H15V12M7 12H15" stroke="#FF7350"/>
</g>
</g>
</svg>
